<svg width="415" height="440" viewBox="0 0 415 440" fill="none" xmlns="http://www.w3.org/2000/svg">
<g clip-path="url(#clip0_2480_24913)">
<path d="M247.22 440C287.724 440 320.559 436.371 320.559 431.894C320.559 427.417 287.724 423.788 247.22 423.788C206.716 423.788 173.882 427.417 173.882 431.894C173.882 436.371 206.716 440 247.22 440Z" fill="#CCCCCC"/>
<path d="M44.5511 418.933C32.3846 403.331 22.1404 385.382 14.5287 365.473C-3.76737 317.625 -3.18838 268.017 12.5369 227.504" stroke="#E6E6E6" stroke-width="2" stroke-miterlimit="10"/>
<path d="M256.296 192.553C272.225 193.363 287.567 196.573 301.605 202.411C335.343 216.439 354.787 242.85 358.546 273.677" stroke="#E6E6E6" stroke-width="2" stroke-miterlimit="10"/>
<path d="M369.157 301.274L369.921 302.208C371.928 304.656 375.796 304.146 377.108 301.267L377.548 300.294C378.853 297.414 376.691 294.164 373.526 294.265L372.314 294.303C368.778 294.411 366.903 298.541 369.149 301.274H369.157Z" fill="black"/>
<path d="M343.047 299.645C342.923 300.718 342.754 301.799 342.437 302.826C342.368 303.05 342.275 303.273 342.198 303.497C346.621 301.189 358.394 296.009 369.518 299.429L370.429 296.48C359.838 293.222 348.875 296.974 343.055 299.653L343.047 299.645Z" fill="black"/>
<path d="M273.467 405.26C273.266 404.789 203.805 406.836 258.229 433.083" stroke="black" stroke-width="4" stroke-miterlimit="10"/>
<path d="M263.014 432.273C263.096 430.679 259.1 429.177 254.088 428.919C249.077 428.661 244.947 429.744 244.865 431.338C244.783 432.933 248.779 434.435 253.791 434.693C258.802 434.951 262.932 433.868 263.014 432.273Z" fill="black"/>
<path d="M366.448 421.334L393.544 408.758L369.667 349.354L369.59 349.176L369.42 349.246L302.002 369.225L300.829 369.51L299.717 369.665L298.683 369.68L297.695 369.58L296.776 369.356L296.128 369.109L295.51 368.808L294.931 368.437L294.391 368.005L293.881 367.519L293.402 366.978L292.962 366.368L292.561 365.72L292.198 365.002L291.874 364.238L291.611 363.504L291.457 362.987L291.303 362.308L291.202 361.652L291.164 361.018L291.171 360.409L291.249 359.822L291.372 359.266L291.55 358.726L291.781 358.193L292.16 357.56L292.808 356.711L294.066 355.437L294.059 355.429L295.456 354.179L295.448 354.171L305.075 347.231L316.585 339.249V339.241L327.13 330.085L327.115 330.062L333.113 323.091L333.129 323.083L333.16 323.029L333.631 322.481L333.476 322.543L337.282 316.629H337.29L337.321 316.568L337.622 316.097L337.529 316.128L339.876 311.256L339.891 311.249L339.914 311.171L340.115 310.755L340.053 310.778L341.922 305.382H341.937L341.96 305.289L342.084 304.918L342.037 304.934L343.319 298.997H343.334L343.35 298.889L343.419 298.557L343.381 298.565L343.852 294.443H343.859L343.867 294.311L343.898 294.018L343.875 294.026L344.014 289.649H344.029L344.021 289.51L344.029 289.232L344.006 289.239L343.798 284.608L343.813 284.6L343.79 284.453L343.782 284.206L343.759 284.214L343.165 279.312H343.18L343.149 279.15L343.118 278.926H343.103L342.099 273.769H342.115L342.068 273.599L342.022 273.391H342.014L340.571 267.979L340.586 267.971L340.524 267.801L340.47 267.601L340.455 267.608L337.351 258.816L337.367 258.808L337.282 258.615L337.228 258.453H337.213L333.908 251.111L333.924 251.103L333.816 250.903L333.746 250.756H333.731L330.095 244.24L330.118 244.233L329.979 244.024L329.902 243.893L329.886 243.901L325.957 238.196L325.98 238.188L325.803 237.972L325.725 237.864H325.718L323.039 234.614L323.062 234.606L322.846 234.382L322.769 234.297H322.761L319.99 231.395L320.013 231.387L319.766 231.163L319.688 231.078L319.681 231.086L316.824 228.523L316.871 228.507L316.554 228.284L316.485 228.222H316.477L311.884 224.856L311.953 224.841L311.552 224.617L311.49 224.57H311.475L306.75 221.938L306.843 221.907L306.333 221.706L306.271 221.668L306.264 221.675L301.462 219.73L301.593 219.699L300.929 219.514L300.875 219.498H300.86L295.325 218.016L295.309 218.024L289.643 217.213H289.635L281.923 217.121H281.908L272.134 218.479L244.937 225.968V225.96L244.729 226.022L244.559 226.045V226.068L235.21 228.801L235.203 228.77L235.002 228.863L234.832 228.909L234.84 228.932L223.592 233.996V233.989L223.407 234.081L223.237 234.158L223.245 234.174L176.702 259.001L176.555 259.078L195.337 309.033L195.407 309.218L195.584 309.141L221.484 300.711L252.016 287.41L252.124 287.495L252.549 287.881L252.95 288.328L253.321 288.83L253.661 289.378L253.962 289.965L254.24 290.606L254.533 291.478L254.641 291.887L254.796 292.729L254.857 293.532L254.834 294.296L254.726 295.06L254.541 295.801L254.286 296.527L253.753 297.6L252.804 299.005L251.275 300.742L240.823 309.187L240.815 309.18L240.614 309.357L240.506 309.435V309.442L230.856 317.486L230.841 317.463L230.686 317.633L230.555 317.741L230.571 317.756L222.372 326.326L222.349 326.302L222.225 326.48L222.102 326.603L222.117 326.627L217.779 332.687L217.756 332.671L217.655 332.864L217.555 333.003L217.57 333.019L214.73 338.314L214.706 338.307L214.621 338.515L214.544 338.662L214.56 338.67L212.877 342.885L212.861 342.869L212.8 343.093L212.738 343.247L212.753 343.255L211.479 347.771L211.449 347.764L211.41 348.003L211.371 348.15L211.387 348.157L210.569 353.005H210.553L210.53 353.237L210.507 353.391L210.522 353.399L210.267 356.703H210.244V356.95L210.237 357.097H210.244L210.229 360.578L210.206 360.571L210.221 360.825V360.972H210.237L210.468 364.631H210.453L210.484 364.871L210.491 365.025H210.499L211.001 368.885H210.985L211.032 369.124L211.055 369.271L211.063 369.279L211.858 373.339H211.842L211.896 373.571L211.927 373.725H211.935L213.039 378.01H213.023L213.101 378.241L213.139 378.388H213.147L215.494 385.444L215.478 385.452L215.563 385.66L215.617 385.815H215.625L218.52 392.832L218.505 392.84L218.597 393.017L218.667 393.187H218.682L221.863 399.595L221.847 399.602L221.948 399.764L222.032 399.942L222.048 399.934L225.514 405.747L225.499 405.755L225.607 405.902L225.707 406.079L225.723 406.071L228.108 409.522L228.1 409.53L228.216 409.677L228.324 409.839L228.34 409.831L230.833 413.042L230.825 413.05L230.941 413.181L231.072 413.344L231.08 413.336L233.689 416.3L233.682 416.316L233.805 416.431L233.952 416.601L233.96 416.586L238.221 420.731L238.206 420.739L238.337 420.847L238.499 421.002L238.514 420.986L243.023 424.607L243.015 424.622L243.154 424.707L243.332 424.854L243.347 424.831L248.11 427.942L248.102 427.957L248.241 428.027L248.442 428.158L248.45 428.135L253.468 430.744L253.46 430.76L253.607 430.814L253.823 430.922V430.898L259.095 433.006L259.088 433.029L259.25 433.068L259.458 433.16L259.466 433.13L267.001 435.206V435.229L267.163 435.252L267.387 435.314V435.283L277.538 436.642V436.665L277.7 436.657L277.94 436.696L277.932 436.657L288.763 436.603L288.771 436.627L288.933 436.603H289.172L289.164 436.573L303.129 434.604L303.137 434.612L303.268 434.589L303.531 434.55L303.523 434.535L366.085 421.457L366.1 421.496L366.262 421.419L366.471 421.38L366.448 421.334Z" fill="white"/>
<path d="M342.359 360.385L366.445 421.086" stroke="#1D1D1B" stroke-linecap="round" stroke-linejoin="round"/>
<path d="M369.726 349.276L393.542 408.511" stroke="#1D1D1B" stroke-linecap="round" stroke-linejoin="round"/>
<path d="M195.76 308.809L177.031 259.024" stroke="#1D1D1B" stroke-linecap="round" stroke-linejoin="round"/>
<path d="M177.031 259.024L223.737 234.104L235.309 228.893L245.012 226.06L254.662 224.763L262.274 224.941L267.879 225.821L273.36 227.38L278.702 229.65L283.866 232.661L288.83 236.436L292.011 239.385L295.076 242.696L298.025 246.371L302.193 252.57L306.038 259.603L309.535 267.5L312.808 276.872L314.383 282.793L315.502 288.452L316.182 293.856L316.452 298.997L316.336 303.876L315.865 308.508L314.545 315L312.584 320.952L310.067 326.395L306.022 332.918L300.147 339.989L289.818 349.184L278.517 357.151L269.06 364.114L267.693 365.388L266.365 366.793L265.81 367.549L265.431 368.205L265.2 368.754L265.022 369.325L264.899 369.919L264.829 370.529L264.822 371.162L264.876 371.826L264.976 372.505L265.146 373.216L265.3 373.764L265.57 374.52L265.902 375.315L266.273 376.057L266.682 376.744L267.13 377.369L267.616 377.948L268.133 378.465L268.689 378.921L269.284 379.314L269.909 379.639L270.573 379.909L271.507 380.156L272.503 380.272H273.553L274.664 380.125L275.83 379.847L300.418 372.66L319.609 367.04L342.36 360.385L369.726 349.276" stroke="#1D1D1B" stroke-linecap="round" stroke-linejoin="round"/>
<path d="M393.542 408.511L366.445 421.086L303.482 434.241L289.154 436.264L277.953 436.318L267.446 434.913L259.549 432.736L253.929 430.489L248.587 427.71L243.507 424.406L238.705 420.546L234.189 416.146L231.333 412.903L228.6 409.406L226.006 405.647L222.362 399.525L219.02 392.793L215.986 385.436L213.523 378.033L212.327 373.378L211.462 368.939L210.914 364.708L210.659 360.663L210.682 356.803L210.968 353.113L211.84 347.887L213.222 343.008L215.036 338.438L218.062 332.818L222.617 326.449L231.063 317.617L240.99 309.342L251.651 300.726L253.203 298.974L254.16 297.546L254.701 296.45L254.971 295.708L255.156 294.944L255.264 294.165L255.287 293.369L255.226 292.551L255.071 291.702L254.956 291.27L254.654 290.39L254.377 289.733L254.068 289.131L253.72 288.568L253.342 288.058L252.925 287.595L252.485 287.186L252.284 287.039L252.007 286.838L251.497 286.545L250.964 286.313L250.393 286.136L249.598 286.012L248.749 286.005L247.853 286.113L246.911 286.36L245.931 286.73L195.76 308.809" stroke="#1D1D1B" stroke-linecap="round" stroke-linejoin="round"/>
<path d="M195.76 308.809L221.644 300.387L252.284 287.039" stroke="#1D1D1B" stroke-linecap="round" stroke-linejoin="round"/>
<path d="M245.012 226.06L250.084 224.663L272.402 218.526L282.191 217.159L289.895 217.259L295.569 218.07L301.105 219.552L306.493 221.729L311.688 224.632L316.675 228.283L319.871 231.147L322.944 234.367L325.893 237.933L330.054 243.97L333.883 250.841L337.349 258.545L340.576 267.701L342.12 273.491L343.201 279.034L343.842 284.322L344.073 289.363L343.911 294.149L343.394 298.704L342.012 305.08L339.982 310.947L337.396 316.32L333.242 322.774L327.244 329.792L316.714 338.94L305.204 346.922L295.562 353.885L294.164 355.151L292.813 356.549L292.234 357.297L291.856 357.954L291.609 358.502L291.424 359.065L291.293 359.644L291.223 360.246L291.208 360.872L291.254 361.52L291.354 362.192L291.517 362.887L291.671 363.419L291.933 364.16L292.265 364.932L292.636 365.658L293.045 366.33L293.493 366.939L293.979 367.503L294.504 368.005L295.06 368.445L295.654 368.823L296.287 369.14L296.959 369.387L297.901 369.618L298.912 369.726L299.977 369.703L301.105 369.549L302.286 369.263L341.294 357.707L369.726 349.276" stroke="#1D1D1B" stroke-linecap="round" stroke-linejoin="round"/>
<path d="M224.833 340.414C233.137 313.425 255.525 285.634 293.539 290.235" stroke="black" stroke-width="4" stroke-miterlimit="10"/>
<path d="M273.468 405.261C273.267 404.79 182.373 383.645 237.956 431.508" stroke="black" stroke-width="4" stroke-miterlimit="10"/>
<path d="M239.855 431.502C239.937 429.907 235.941 428.405 230.93 428.147C225.918 427.889 221.789 428.972 221.707 430.566C221.624 432.161 225.62 433.663 230.632 433.921C235.644 434.179 239.773 433.096 239.855 431.502Z" fill="black"/>
<path d="M292.731 294.327L293.496 295.261C295.503 297.708 299.37 297.198 300.683 294.319L301.123 293.346C302.427 290.467 300.266 287.217 297.101 287.317L295.889 287.356C292.353 287.464 290.477 291.594 292.724 294.327H292.731Z" fill="black"/>
<path d="M113.667 190.649C181.601 158.226 173.11 96.4671 138.37 67.1317" stroke="#EC0918" stroke-width="4" stroke-miterlimit="10"/>
<path d="M104.403 291.779C104.202 291.308 147.634 307.991 108.263 362.802" stroke="#EC0918" stroke-width="4" stroke-miterlimit="10"/>
<path d="M108.611 159.863C110.097 158.649 108.726 154.515 105.551 150.629C102.375 146.744 98.5962 144.578 97.1107 145.792C95.6252 147.006 96.9953 151.14 100.171 155.026C103.347 158.911 107.125 161.077 108.611 159.863Z" fill="#EC0918"/>
<path d="M114.509 377.503C116.307 376.834 116.346 372.479 114.596 367.776C112.846 363.073 109.97 359.802 108.172 360.471C106.373 361.14 106.334 365.495 108.084 370.199C109.834 374.902 112.711 378.172 114.509 377.503Z" fill="#EC0918"/>
<path d="M142.416 65.4179L142.524 64.2136C142.817 61.064 139.706 58.7094 136.749 59.8365L135.753 60.2148C132.804 61.3419 132.055 65.1786 134.371 67.3247L135.259 68.1508C137.853 70.5594 142.084 68.9459 142.408 65.4179H142.416Z" fill="#EC0918"/>
<path d="M138.309 86.4313C138.316 86.3387 138.255 86.2538 138.17 86.2306L100.644 75.9555C100.644 75.9555 100.628 75.9555 100.62 75.9555C100.582 75.9555 100.543 75.9555 100.512 75.9709C100.505 75.9709 100.497 75.9709 100.489 75.9709C100.489 75.9709 100.489 75.9787 100.481 75.9864C100.481 75.9864 100.466 75.9864 100.458 76.0018L67.1703 110.803L60.4849 118.476C60.4849 118.476 60.4772 118.492 60.4695 118.5L55.3126 125.494L50.5572 133.013L47.0447 139.405L44.5821 144.423L42.2738 149.641L40.12 155.061L38.1205 160.688L36.2755 166.54L35.1407 170.562L34.0753 174.692L33.0872 178.93L31.744 185.492L30.5783 192.324L29.5901 199.442L28.7564 207.355L28.4167 212.072L28.2469 216.364L28.2314 220.255L28.3704 223.767L28.6483 226.917L29.0575 229.719C29.0575 229.719 29.0575 229.719 29.0575 229.727L29.9066 233.324C29.9066 233.324 29.9066 233.332 29.9066 233.34C29.9066 233.34 29.9066 233.34 29.9066 233.348L31.0029 236.273C31.0029 236.273 31.0106 236.281 31.0183 236.289C31.0183 236.289 31.0183 236.297 31.0183 236.304L32.3461 238.613C32.3461 238.613 32.3615 238.62 32.3615 238.628C32.3615 238.628 32.3615 238.643 32.3693 238.643L34.4459 240.874C34.4459 240.874 34.4613 240.874 34.4691 240.882C34.4768 240.89 34.4845 240.905 34.4922 240.905L37.4798 242.526C37.4798 242.526 37.503 242.527 37.5184 242.534C37.5184 242.534 37.5261 242.542 37.5338 242.542L57.3584 246.626V246.718L57.2735 247.521L57.1577 248.394L57.0187 249.25L56.8566 250.092L56.6636 250.903L56.4474 251.698L56.2081 252.454L55.9457 253.188L55.66 253.89L55.3435 254.569L55.0116 255.202L54.5252 255.99L54.008 256.7L53.4444 257.349L52.85 257.904L52.2093 258.391L21.1215 279.288C21.0751 279.319 21.0443 279.366 21.0365 279.427L14.2971 334.346C14.2971 334.346 14.2971 334.369 14.2971 334.377C14.2971 334.385 14.2971 334.393 14.2971 334.4C14.2971 334.408 14.3048 334.416 14.3048 334.423C14.3048 334.447 14.3203 334.462 14.3357 334.485C14.3434 334.501 14.3512 334.508 14.3589 334.516C14.3589 334.516 14.3589 334.524 14.3743 334.532C14.3898 334.539 14.4052 334.539 14.4206 334.547C14.4361 334.547 14.4438 334.562 14.4592 334.562L49.2603 340.499C49.2603 340.499 49.2834 340.499 49.2912 340.499C49.3143 340.499 49.3452 340.499 49.3684 340.484L79.7228 326.989C79.7228 326.989 79.7228 326.989 79.7305 326.989L88.0911 322.326C88.0911 322.326 88.0911 322.319 88.0988 322.311C88.0988 322.311 88.1065 322.311 88.1142 322.311L94.954 316.953C94.954 316.953 94.954 316.946 94.9617 316.938C94.9617 316.938 94.9617 316.938 94.9694 316.938L101.578 310.206V310.199L106.626 303.799L110.232 298.41L113.659 292.512L116.871 286.113L119.85 279.227L122.568 271.87L124.22 266.705L125.741 261.347L127.115 255.797L128.898 247.135L130.326 238.095L131.384 228.716L131.955 219.799L132.025 214.527L131.87 209.771L131.5 205.502L130.928 201.704C130.928 201.704 130.928 201.704 130.928 201.696L130.18 198.346C130.18 198.346 130.18 198.346 130.18 198.338L129.261 195.412C129.261 195.412 129.261 195.412 129.261 195.405V195.397L127.609 191.745C127.609 191.745 127.609 191.745 127.601 191.745C127.601 191.745 127.601 191.73 127.601 191.722L125.664 188.881C125.664 188.881 125.656 188.881 125.648 188.874C125.648 188.874 125.648 188.858 125.64 188.85L123.463 186.727C123.463 186.727 123.448 186.72 123.44 186.712C123.44 186.712 123.44 186.704 123.425 186.697L120.244 184.852C120.244 184.852 120.213 184.836 120.19 184.828L92.8542 178.413L92.9237 178.259L93.217 177.695L93.6493 176.977L94.1125 176.306L94.6221 175.673L95.1779 175.086L95.7723 174.553L132.905 144.438C132.905 144.438 132.959 144.369 132.966 144.322C132.966 144.322 132.966 144.315 132.974 144.307L138.309 86.4545V86.4313Z" fill="#EC0918"/>
<path d="M57.4588 243.924L56.6482 242.125L53.9771 241.577L47.3149 242.04C46.7282 242.349 46.1029 242.457 45.493 242.403C44.7442 242.635 43.9645 242.789 43.1616 242.843C42.6907 242.882 42.2353 242.858 41.8029 242.774C41.6794 242.828 41.5559 242.874 41.4247 242.905C41.2471 242.943 40.9538 242.982 40.7762 242.99C40.7299 242.99 40.313 242.959 40.1123 242.897C39.8807 242.82 39.6723 242.712 39.4715 242.588L37.4875 242.727L46.5043 244.696L57.4974 246.919L57.4588 243.924Z" fill="#CE0D20"/>
<path d="M100.597 76.1331L94.4599 134.634L67.7029 159.098L59.2806 166.911L57.8601 169.026L56.7176 171.697L55.8839 175.48L55.7758 178.035L55.9842 179.247L57.0032 180.397L58.084 180.613L64.1518 178.421L72.7517 175.719L78.2328 175.148L82.085 176.066L84.4395 177.541L86.8481 179.934L88.4461 182.59L90.3838 188.04L91.48 194L92.005 201.673L91.8506 210.952L91.2562 218.433L89.8898 229.982L88.5388 238.227L85.8754 250.648L82.9033 261.409L79.329 271.792L74.535 282.886L68.4904 293.956L62.4612 302.703L57.5127 308.338L51.0435 314.375L47.7471 316.76L42.1039 320.342L36.4916 323.222L18.9753 332.2L14.436 334.524L18.0566 335.334L49.2448 340.46L60.647 335.597L79.6764 327.144L88.6854 321.971L94.3595 317.285L101.269 310.345L107.869 301.699L114.586 290.76L121.518 274.811L127.13 255.851L129.33 243.314L130.967 232.599L132.017 216.464L131.121 204.205L129.639 197.203L127.478 191.521L123.324 186.828L120.136 184.983L92.5299 178.506L95.0466 174.916L111.166 161.8L132.604 144.407L134.557 125.077L138.116 86.4082L100.597 76.1331Z" fill="#CE0D20"/>
<path d="M100.597 76.1331L94.4599 134.634L60.1529 165.992L59.5894 166.548L59.0721 167.165L58.5858 167.822L58.1303 168.532L57.7212 169.273L57.4433 169.852L57.1808 170.454L56.9415 171.064L56.7176 171.697L56.5246 172.338L56.347 172.986L56.1926 173.65L56.0614 174.314L55.9533 174.986L55.8607 175.665L55.7835 176.514L55.7603 176.908L55.7526 177.618L55.7835 178.243L55.8607 178.784L55.9842 179.247L56.1463 179.633L56.3548 179.949L56.733 180.289L57.3661 180.536L58.3465 180.552L65.0627 178.089L71.833 175.812L78.2328 175.148L82.085 176.066L84.9259 177.85L86.8481 179.934L88.5388 182.752L89.9592 186.403L90.7235 189.337L91.3256 192.703L91.758 196.516L91.9973 200.816L92.0359 205.618L91.8506 210.952L91.1326 219.969L89.9669 229.472L88.4693 238.643L86.6551 247.436L85.2887 253.072L83.7911 258.522L82.1699 263.771L79.5452 271.275L76.6888 278.292L73.6318 284.831L70.3894 290.86L67.0004 296.38L62.2836 302.95L56.1463 309.89L49.8315 315.44L42.158 320.319L14.436 334.524" stroke="#1D1D1B" stroke-linecap="round" stroke-linejoin="round"/>
<path d="M138.116 86.4082L132.789 144.261L95.6566 174.376L95.0467 174.916L94.4832 175.511L93.9582 176.151L93.4796 176.838L93.0473 177.564L92.7462 178.135L92.5764 178.506H92.5301L86.3233 177.047L82.0465 176.043L78.2329 175.148" stroke="#1D1D1B" stroke-linecap="round" stroke-linejoin="round"/>
<path d="M14.436 334.524L21.1755 279.605L52.271 258.707L52.9194 258.213L53.5293 257.634L54.1083 256.986L54.641 256.252L55.1273 255.457L55.467 254.809L55.7835 254.137L56.0769 253.427L56.347 252.686L56.5941 251.914L56.8102 251.119L57.0032 250.3L57.1654 249.459L57.3043 248.602L57.4201 247.722L57.4973 246.911L57.5127 246.649L57.5359 246.356L57.5591 245.653V245.02L57.5282 244.441L57.4587 243.924L57.3661 243.461L57.2425 243.059L57.0959 242.712L56.9106 242.411L56.6481 242.125L56.2698 241.878L55.4207 241.623L54.5638 241.507L49.0209 242.133L42.8759 243.098L37.5261 242.534L34.5385 240.913L32.4619 238.682L31.134 236.374L30.0301 233.448L29.1886 229.851L28.7795 227.048L28.5016 223.906L28.3626 220.394L28.3781 216.503L28.5479 212.211L28.8876 207.494L29.7213 199.581L30.7095 192.463L31.8752 185.631L33.2184 179.069L34.2065 174.831L35.2719 170.701L36.4144 166.679L38.2517 160.835L40.2512 155.2L42.4127 149.78L44.721 144.562L47.1836 139.536L50.6884 133.144L55.4438 125.625L60.6007 118.631L67.3092 110.934L100.597 76.1331" stroke="#1D1D1B" stroke-linecap="round" stroke-linejoin="round"/>
<path d="M94.46 134.634L132.789 144.261" stroke="#1D1D1B" stroke-linecap="round" stroke-linejoin="round"/>
<path d="M82.085 176.066L84.9259 176.73L86.3309 177.062L92.4836 178.498L92.5685 178.521L115.821 183.972H115.867L120.136 184.983L123.324 186.828L125.494 188.951L127.431 191.792L129.083 195.451L130.002 198.377L130.751 201.727L131.322 205.518L131.693 209.787L131.847 214.542L131.778 219.815L131.206 228.731L130.156 238.111L128.728 247.151L126.945 255.812L125.571 261.355L124.05 266.72L122.398 271.877L119.681 279.242L116.701 286.12L113.489 292.52L110.062 298.418L106.457 303.807L101.408 310.206L94.7996 316.938L87.9598 322.296L79.5915 326.966L49.2448 340.46L14.436 334.524" stroke="#1D1D1B" stroke-linecap="round" stroke-linejoin="round"/>
<path d="M100.597 76.1331L138.116 86.4082" stroke="#1D1D1B" stroke-linecap="round" stroke-linejoin="round"/>
<path d="M92.4912 178.49L92.5761 178.506L115.844 183.971L120.136 184.983" stroke="#1D1D1B" stroke-linecap="round" stroke-linejoin="round"/>
<path d="M86.9324 115.184C91.6471 114.057 94.8984 110.756 94.1943 107.812C93.4902 104.868 89.0974 103.395 84.3827 104.523C79.668 105.65 76.4167 108.951 77.1208 111.895C77.8249 114.839 82.2177 116.312 86.9324 115.184Z" fill="#CE0D20"/>
<path d="M84.7174 109.591C87.915 109.591 90.5072 105.443 90.5072 100.327C90.5072 95.2108 87.915 91.0632 84.7174 91.0632C81.5197 91.0632 78.9275 95.2108 78.9275 100.327C78.9275 105.443 81.5197 109.591 84.7174 109.591Z" fill="black"/>
<path d="M66.0897 139.116C70.8044 137.988 74.0556 134.687 73.3515 131.743C72.6474 128.799 68.2546 127.327 63.5399 128.454C58.8252 129.582 55.574 132.882 56.2781 135.827C56.9822 138.771 61.375 140.243 66.0897 139.116Z" fill="#CE0D20"/>
<path d="M63.1019 133.522C66.2996 133.522 68.8918 129.375 68.8918 124.259C68.8918 119.142 66.2996 114.995 63.1019 114.995C59.9042 114.995 57.312 119.142 57.312 124.259C57.312 129.375 59.9042 133.522 63.1019 133.522Z" fill="black"/>
<path d="M65.4178 95.6951C55.2199 93.2711 47.9478 105.175 45.0374 112.926C44.5125 114.331 44.2346 116.469 45.0374 117.836C45.6473 118.878 46.6509 119.287 47.199 117.836C49.8623 110.749 56.2003 100.451 65.4178 102.643C67.1779 103.06 67.7338 96.2432 65.4178 95.6951Z" fill="black"/>
<path d="M70.7058 86.8173C70.7213 76.3338 83.9839 72.0338 92.2056 71.0071C93.6955 70.8218 95.8416 71.0534 96.9841 72.1496C97.8565 72.9911 98.0186 74.0564 96.4824 74.2494C88.971 75.1912 77.4838 78.9585 77.4684 88.4308C77.4684 90.2372 70.7058 89.195 70.7135 86.8173H70.7058Z" fill="black"/>
<path d="M41.8723 185.245C41.6716 184.774 -12.9385 108.819 64.2599 62.4998" stroke="#EC0918" stroke-width="4" stroke-miterlimit="10"/>
<path d="M46.2419 283.596C36.3605 289.726 51.6843 372.019 85.8755 408.349" stroke="#EC0918" stroke-width="4" stroke-miterlimit="10"/>
<path d="M67.3015 63.5574L68.3051 62.8858C70.9299 61.1257 70.8064 57.2272 68.0658 55.6446L67.1394 55.1119C64.3989 53.5294 60.9558 55.3744 60.7474 58.5241L60.6702 59.7284C60.4386 63.2641 64.3603 65.526 67.3015 63.5574Z" fill="#EC0918"/>
<path d="M95.4592 421.071C96.9447 419.857 95.5745 415.723 92.3988 411.837C89.2231 407.952 85.4444 405.786 83.9588 407C82.4733 408.214 83.8435 412.348 87.0192 416.234C90.1949 420.119 93.9736 422.285 95.4592 421.071Z" fill="#EC0918"/>
<path d="M110.911 48.3262C102.851 46.072 96.3356 40.0583 92.383 32.7244C91.0243 33.9519 89.8046 35.2951 88.7393 36.7233C89.4186 37.9122 90.1906 39.047 91.0861 40.1123C96.0036 45.9408 103.492 48.9052 110.911 48.3262Z" fill="#1D70B7"/>
<path d="M115.658 47.4616C116.114 47.3303 116.562 47.1914 117.009 47.0293C119.248 46.2187 121.294 45.0684 123.124 43.6634C113.065 42.7293 104.48 36.6924 99.4314 28.0693C97.4011 28.9957 95.4788 30.1846 93.7341 31.5819C95.2627 34.4922 97.1154 37.2096 99.4391 39.5487C103.554 43.702 109.761 47.2686 115.666 47.4616H115.658Z" fill="#1D70B7"/>
<path d="M122.807 36.43C122.645 36.4377 122.475 36.4068 122.328 36.3219C116.438 34.9246 110.972 31.5819 108.44 25.9464C105.916 25.985 103.422 26.5022 101.045 27.39C102.743 30.2618 104.797 32.8943 107.321 35.1021C111.976 39.1782 118.669 42.189 125.007 42.0191C126.536 40.5601 127.856 38.9003 128.944 37.0939C126.929 37.0939 124.853 36.87 122.815 36.4222L122.807 36.43Z" fill="#1D70B7"/>
<path d="M124.32 7.52687C122.367 5.79763 120.113 4.3849 117.635 3.38904C121.95 12.2437 120.692 23.5301 116.847 32.4002C118.507 33.3806 120.298 34.0986 122.166 34.5772C123.263 32.1532 123.981 29.513 124.544 26.9345C125.926 20.5348 125.926 13.888 124.32 7.53459V7.52687Z" fill="#CCCCCC"/>
<path d="M113.458 2.13068C112.377 1.91453 111.297 1.79873 110.216 1.74469C110.849 3.52025 111.366 5.3267 111.714 7.16402C111.791 7.29525 111.806 7.45737 111.783 7.61949C112.408 11.1475 112.509 14.7526 111.937 18.3346C111.575 20.6043 110.972 22.9974 109.915 25.074C109.938 25.1281 109.969 25.1821 109.984 25.2207C110.216 25.6685 110.455 26.1008 110.725 26.5254C111.598 27.9072 112.671 29.1501 113.883 30.2463C114.361 30.6787 114.863 31.0646 115.38 31.4429C119.155 22.6423 120.252 11.0548 115.218 2.55527C114.639 2.39316 114.053 2.23876 113.45 2.12296L113.458 2.13068Z" fill="#CCCCCC"/>
<path d="M126.59 9.85052C128.103 18.1185 127.292 27.2896 123.888 34.9632C125.856 35.3183 127.879 35.4341 129.894 35.3646C131.445 32.2072 132.31 28.7024 132.349 25.0818C132.295 19.3536 130.148 13.9961 126.59 9.85052Z" fill="#CCCCCC"/>
<path d="M88.8552 13.1855C93.3019 10.2597 98.2503 8.07499 103.515 7.15633C105.569 6.79349 107.738 6.56962 109.853 6.70085C109.483 5.01021 108.989 3.34272 108.386 1.72156C100.504 1.96087 92.9853 6.22994 88.8784 13.1469L88.8552 13.1855Z" fill="#F8B133"/>
<path d="M88.5618 24.9814C87.5736 25.9233 86.5623 26.9886 85.8752 28.1929C86.1918 30.5552 86.8557 32.8634 87.867 35.0404C89.079 33.5273 90.4531 32.1223 91.9585 30.8408C92.0434 30.725 92.1515 30.6324 92.2827 30.5629C96.8374 26.7956 102.535 24.3021 108.425 24.2249C109.367 22.349 109.892 20.1874 110.231 18.1494C110.332 17.5781 110.393 17.0068 110.448 16.4279C106.827 16.783 103.237 17.4314 99.7787 18.574C95.6794 19.9327 91.7037 21.9861 88.554 24.9737L88.5618 24.9814Z" fill="#F8B133"/>
<path d="M110.571 14.6908C110.656 12.5988 110.517 10.5144 110.177 8.45321C109.73 8.42233 109.29 8.40689 108.842 8.39917C107.12 8.39917 105.399 8.56129 103.7 8.87008C97.679 9.97402 92.1516 12.73 87.2803 16.3815C86.1146 19.3227 85.582 22.457 85.6592 25.5758C91.5803 18.3578 101.601 15.54 110.571 14.6831V14.6908Z" fill="#F8B133"/>
<path d="M84.1461 28.355C84.5166 31.2885 85.4044 34.1603 86.8171 36.8314C86.848 36.9703 86.9175 37.0938 87.0178 37.1942C87.18 37.4876 87.3266 37.7809 87.5042 38.0665C92.9544 47.037 103.631 51.7075 113.921 49.6849C114.67 49.5382 115.411 49.3529 116.129 49.1368C116.145 49.1368 116.16 49.1291 116.176 49.1213C119.796 48.0406 123.031 46.1415 125.733 43.6711C125.903 43.5939 126.018 43.4704 126.103 43.316C130.99 38.661 134.009 32.0991 134.07 25.074C134.001 17.8946 130.913 11.1861 125.795 6.50783C125.694 6.34572 125.571 6.23764 125.409 6.1836C123.17 4.21504 120.576 2.62475 117.681 1.53626C107.784 -2.16927 96.2508 0.995869 89.5731 9.15574C85.2346 14.467 83.3586 21.3222 84.092 27.9535C84.0766 28.0925 84.092 28.2315 84.1383 28.355H84.1461ZM108.379 1.72925C108.981 3.35814 109.483 5.0179 109.845 6.70855C107.73 6.56959 105.561 6.80119 103.507 7.16402C98.2425 8.08268 93.2941 10.2674 88.8474 13.1932L88.8706 13.1546C92.9776 6.23764 100.489 1.96857 108.379 1.72925ZM116.847 32.4002C120.692 23.5224 121.95 12.2437 117.635 3.38902C120.113 4.3926 122.367 5.79761 124.32 7.52685C125.926 13.888 125.926 20.5271 124.544 26.9268C123.988 29.5052 123.262 32.1454 122.166 34.5695C120.298 34.0908 118.515 33.3806 116.847 32.3925V32.4002ZM115.388 31.4584C114.879 31.0878 114.369 30.7018 113.891 30.2618C112.679 29.1656 111.606 27.9227 110.733 26.5408C110.463 26.1162 110.224 25.6762 109.992 25.2362C109.969 25.1976 109.946 25.1435 109.923 25.0895C110.98 23.0129 111.582 20.6197 111.945 18.3501C112.516 14.7681 112.416 11.1629 111.791 7.63493C111.806 7.47281 111.791 7.3107 111.721 7.17946C111.366 5.34214 110.857 3.52798 110.224 1.76013C111.304 1.81417 112.393 1.93769 113.466 2.14612C114.068 2.26192 114.655 2.41632 115.234 2.57844C120.267 11.078 119.171 22.6732 115.396 31.4661L115.388 31.4584ZM110.231 18.1571C109.884 20.1951 109.367 22.3567 108.425 24.2326C102.527 24.3098 96.8375 26.8033 92.2828 30.5706C92.1593 30.6401 92.0512 30.7327 91.9585 30.8485C90.4532 32.1223 89.079 33.535 87.867 35.0481C86.8557 32.8711 86.1841 30.5629 85.8753 28.2006C86.5701 26.9963 87.5737 25.931 88.5618 24.9891C91.7115 21.9938 95.6872 19.9404 99.7864 18.5894C103.245 17.4468 106.835 16.7907 110.455 16.4433C110.394 17.0145 110.332 17.5935 110.239 18.1648L110.231 18.1571ZM99.4236 28.0693C104.472 36.6924 113.057 42.7293 123.116 43.6557C121.294 45.0607 119.24 46.211 117.002 47.0216C116.554 47.1837 116.098 47.3226 115.651 47.4539C109.745 47.2609 103.546 43.6943 99.4236 39.541C97.1077 37.2019 95.2472 34.4845 93.7187 31.5742C95.4633 30.1846 97.3856 28.9957 99.4159 28.0616L99.4236 28.0693ZM125.007 42.0345C118.677 42.1967 111.976 39.1936 107.321 35.1176C104.797 32.9097 102.743 30.2772 101.045 27.4054C103.422 26.5099 105.916 26.0004 108.44 25.9618C110.972 31.5973 116.43 34.9323 122.328 36.3373C122.483 36.4222 122.645 36.4531 122.807 36.4454C124.845 36.8931 126.922 37.117 128.937 37.117C127.856 38.9234 126.528 40.5832 124.999 42.0423L125.007 42.0345ZM123.888 34.9554C127.292 27.2819 128.095 18.1108 126.59 9.8428C130.149 13.9884 132.295 19.3459 132.349 25.074C132.31 28.6947 131.446 32.2072 129.894 35.3569C127.879 35.4264 125.856 35.3028 123.888 34.9554ZM87.288 16.3815C92.1593 12.7223 97.6867 9.97404 103.708 8.8701C105.399 8.56131 107.128 8.39147 108.85 8.39919C109.297 8.39919 109.737 8.41463 110.185 8.45323C110.525 10.5144 110.664 12.5988 110.579 14.6909C101.608 15.5478 91.5957 18.3655 85.6669 25.5836C85.5974 22.4647 86.1223 19.3305 87.288 16.3892V16.3815ZM92.3754 32.7244C96.328 40.0583 102.844 46.072 110.903 48.3262C103.484 48.9052 95.996 45.9485 91.0785 40.1123C90.183 39.047 89.4033 37.9121 88.7316 36.7233C89.797 35.2951 91.0167 33.9519 92.3754 32.7244Z" fill="white"/>
</g>
<defs>
<clipPath id="clip0_2480_24913">
<rect width="414.301" height="440" fill="white"/>
</clipPath>
</defs>
</svg>
